<?xml version="1.0" encoding="UTF-8" standalone="no"?>
<!-- Created with Inkscape (http://www.inkscape.org/) -->

<svg
   xmlns:dc="http://purl.org/dc/elements/1.1/"
   xmlns:cc="http://creativecommons.org/ns#"
   xmlns:rdf="http://www.w3.org/1999/02/22-rdf-syntax-ns#"
   xmlns:svg="http://www.w3.org/2000/svg"
   xmlns="http://www.w3.org/2000/svg"
   xmlns:sodipodi="http://sodipodi.sourceforge.net/DTD/sodipodi-0.dtd"
   xmlns:inkscape="http://www.inkscape.org/namespaces/inkscape"
   width="210mm"
   height="297mm"
   id="svg2"
   version="1.1"
   inkscape:version="0.46+devel 22040"
   sodipodi:docname="yy.svg">
  <defs
     id="defs4">
    <inkscape:perspective
       sodipodi:type="inkscape:persp3d"
       inkscape:vp_x="0 : 526.18109 : 1"
       inkscape:vp_y="0 : 1000 : 0"
       inkscape:vp_z="744.09448 : 526.18109 : 1"
       inkscape:persp3d-origin="372.04724 : 350.78739 : 1"
       id="perspective10" />
  </defs>
  <sodipodi:namedview
     id="base"
     pagecolor="#ffffff"
     bordercolor="#666666"
     borderopacity="1.0"
     inkscape:pageopacity="0.0"
     inkscape:pageshadow="2"
     inkscape:zoom="1.8008466"
     inkscape:cx="248.8192"
     inkscape:cy="916.19302"
     inkscape:document-units="px"
     inkscape:current-layer="layer1"
     showgrid="false"
     showguides="true"
     inkscape:guide-bbox="true"
     inkscape:window-width="1440"
     inkscape:window-height="850"
     inkscape:window-x="-8"
     inkscape:window-y="-8"
     inkscape:window-maximized="1">
    <sodipodi:guide
       orientation="0,1"
       position="127.16242,1000.0852"
       id="guide2816" />
    <sodipodi:guide
       orientation="0,1"
       position="117.16712,950.1087"
       id="guide2818" />
    <sodipodi:guide
       orientation="0,1"
       position="144.37654,900.13221"
       id="guide2820" />
    <sodipodi:guide
       orientation="0,1"
       position="121.05418,850.15571"
       id="guide2822" />
    <sodipodi:guide
       orientation="0,1"
       position="34.428252,1050.0617"
       id="guide2824" />
    <sodipodi:guide
       orientation="0,1"
       position="27.764719,800.17922"
       id="guide2826" />
    <sodipodi:guide
       orientation="1,0"
       position="49.976495,976.20754"
       id="guide2828" />
    <sodipodi:guide
       orientation="1,0"
       position="99.952989,1050.0617"
       id="guide3164" />
    <sodipodi:guide
       orientation="1,0"
       position="149.92948,986.20282"
       id="guide3166" />
  </sodipodi:namedview>
  <metadata
     id="metadata7">
    <rdf:RDF>
      <cc:Work
         rdf:about="">
        <dc:format>image/svg+xml</dc:format>
        <dc:type
           rdf:resource="http://purl.org/dc/dcmitype/StillImage" />
        <dc:title></dc:title>
      </cc:Work>
    </rdf:RDF>
  </metadata>
  <g
     inkscape:label="Calque 1"
     inkscape:groupmode="layer"
     id="layer1">
    <path
       style="fill:none;stroke:#000000;stroke-width:1px;stroke-linecap:butt;stroke-linejoin:miter;stroke-opacity:1"
       d="M 34.983547,33.952272 C 46.652424,48.468547 -0.42305885,54.656752 6.6635327,33.396977 12.225918,16.709822 32.526788,0.45792282 50.531789,13.961674 c 14.936445,11.202333 12.578039,25.102854 38.315313,28.320013 22.460758,2.807595 51.392148,1.712745 64.414148,-19.990598 1.78774,-2.979565 4.51052,-8.782465 2.22118,-12.216476 -8.31384,-12.470757 -30.59326,5.060132 -36.09414,11.661182 -32.020149,38.424183 -45.995538,87.303725 -89.957687,116.611825 -8.3001,5.5334 -27.1161443,16.24346 -34.9835469,4.44235 -6.0338911,-9.05083 5.60150907,-26.19948 14.9929485,-27.76472 12.0126694,-2.00211 24.0130594,19.72572 32.2070744,26.09884 13.935906,10.83904 35.615045,10.62448 52.197673,9.44 11.865688,-0.84755 33.971368,-1.07543 31.096488,-18.32471 -1.04233,-6.25395 -4.20208,-9.65758 -9.9953,-11.10589"
       id="path3558" />
    <path
       style="fill:none;stroke:#000000;stroke-width:1px;stroke-linecap:butt;stroke-linejoin:miter;stroke-opacity:1"
       d="m 33.872958,86.705239 c -0.606532,-0.56566 -4.015739,-0.853233 -3.331767,-2.221178 1.275083,-2.550165 6.684077,-3.336902 8.884711,-3.887061 29.987432,-7.496858 32.574297,12.26238 49.976495,14.437654 8.041828,1.005229 15.104033,-3.062061 22.211773,-6.108238"
       id="path3560" />
  </g>
</svg>
